<svg id="Layer_1" data-name="Layer 1" xmlns="http://www.w3.org/2000/svg" viewBox="0 0 720 720"><defs><style>.cls-1{fill:#216e9c;}.cls-2{fill:#2e93d1;}.cls-3{fill:#fff;}</style></defs><title>Dylan Diamond</title><rect class="cls-1" width="720" height="720"/><rect class="cls-2" x="26.49" y="26.49" width="667.02" height="667.02"/><path class="cls-3" d="M531.21,427.35H467.66L383,279.7,416.81,221a19.71,19.71,0,0,0-34.22-19.56L360.1,240.59l-22.49-39.11a20.05,20.05,0,1,0-34,21.12l33.83,58.67L252.54,428.13H188.79a19.56,19.56,0,0,0,0,39.11h40.68l-18.19,31.29a20.73,20.73,0,0,0-2.74,10,19.56,19.56,0,0,0,10,17.21l.58.34a19.56,19.56,0,0,0,26.6-7.57l16.82-29.33a14.67,14.67,0,0,0-12.71-21.9H427a10.36,10.36,0,0,0,10.36-10.36A10.56,10.56,0,0,0,436,451.6a48.69,48.69,0,0,0-41.85-24.25h-96l62-107.17,20.73-35.79h0a71.45,71.45,0,0,0-4.23,8.54q-.91,2.19-1.66,4.42a71.4,71.4,0,0,0,0,45.85q.76,2.23,1.66,4.42a71.45,71.45,0,0,0,4.23,8.54l41.26,71.18L436,451.6l9,15.64,29.53,51.24.34.58a19.56,19.56,0,0,0,26.84,6.65l.58-.34a19.56,19.56,0,0,0,6.65-26.84l-18.19-31.29h40.68l-.2-.78a19.56,19.56,0,1,0,0-39.11Z"/></svg>