<svg id="Layer_1" data-name="Layer 1" xmlns="http://www.w3.org/2000/svg" viewBox="0 0 720 720"><defs><style>.cls-1{fill:#cba810;}.cls-2{fill:#ffd10f;}.cls-3{fill:#fff;}</style></defs><title>Jacob Beckerman</title><rect class="cls-1" width="720" height="720"/><rect class="cls-2" x="26.49" y="26.49" width="667.02" height="667.02"/><path class="cls-3" d="M309.21,225.17a26.73,26.73,0,1,0,26.87,26.74A26.76,26.76,0,0,0,309.21,225.17Zm80.1,47.4h0a10.49,10.49,0,0,0-9.6,6.48l-3.23,7.51H320.26c-8,0-10,0-14.56-1q-1.81-.45-3.53-.84l-1.48-.35h0c-24.39-5.36-35-2-45.16,12.78a1.09,1.09,0,0,1-.09.13c-.49.8-1,1.54-1.46,2.4l-.24.38c-1,1.69-2.07,3.51-3.18,5.43-2,3.43-3.86,7-5.7,10.52,0,0,0,0,0,0-1.84,3.55-3.61,7.15-5.3,10.74-7.76,16.54-13.77,32.6-15.62,45.82a15,15,0,0,0-1,5.12c-2.57,15.69-11.57,29.1-26,42.76-15,14.16-35.35,27.82-56.72,42.47a15,15,0,1,0,16.65,24.94l.29-.2c21.13-14.48,42.66-28.64,60.4-45.44C232,428.51,244.21,412.49,250,393.31c20.19,1.22,36.23,5.67,44.82,14,10.22,9.89,15.88,28,5,68.45a15,15,0,1,0,28.84,8.21l.12-.46c12.22-45.6,6.94-78.33-13.14-97.75-8.45-8.17-18.46-13.49-29.35-16.92,5.7-17.84,10.36-30,18.06-43.61L367.08,340l1.43,8.06a10.49,10.49,0,1,0,20.75-3.14q0-.26-.09-.51l-2.61-14.85a10.49,10.49,0,0,0-7.92-8.4l-57.75-13.64h62.5A10.49,10.49,0,0,0,393,301.2l6-13.86a10.49,10.49,0,0,0-9.67-14.78ZM544.94,275a41.4,41.4,0,0,0-29.37,12.16,29.19,29.19,0,0,1-35.9.92,29,29,0,0,0,22,20.92c-28.78,1.94-60.08,10.29-68.19,36.62,51.76-35.56,75.29,12.46,111.42,12.46a41.54,41.54,0,1,0,0-83.08Z"/></svg>