<svg id="Layer_1" data-name="Layer 1" xmlns="http://www.w3.org/2000/svg" viewBox="0 0 720 720"><defs><style>.cls-1{fill:#6d9b36;}.cls-2{fill:#91c847;}.cls-3{fill:#fff;}</style></defs><title>Mayank Mishra</title><rect class="cls-1" width="720" height="720"/><rect class="cls-2" x="26.49" y="26.49" width="667.02" height="667.02"/><path class="cls-3" d="M371.92,419.54c-8.75-4.37-22.36-12.64-36.45-22.36-11.18,2.43-24.79,0-38.39-10.21a81.65,81.65,0,0,1-10.21-8.75c-8.26-8.26-17-19.44-26.73-31.59-1-1-1.46-1.94-2.43-2.92a7.53,7.53,0,0,1,1-10.21,7.81,7.81,0,0,1,11.18,1c1,1,1.46,1.94,2.43,2.92,12.64,15.55,24.3,30.62,34,37.42,18,13.12,32.08,8.26,39.37-.49,5.83-7.29,7.78-18-.49-25.27-11.66-10.69-22.84-24.3-34-37.91-12.64-15.55-26.24-31.59-37.91-40.83-6.8-4.86-20.41-11.18-35-17.5l-10.21-4.37-28.19-26.73c-2.43-2.43-5.83-2.43-7.78,0l-61.24,60.75c-2.43,2.43-2.43,5.83,0,7.78l27.22,27.22c13.61,28.67,31.1,62.7,45.2,79.22,28.67,33.53,123.93,58.81,152.61,65.13C385,467.65,397.19,432.17,371.92,419.54Z"/><path class="cls-3" d="M589.65,428.77l-27.22-27.22c-13.61-28.67-31.1-62.7-45.2-79.22-28.67-33-124.42-58.81-153.09-64.64S322.83,287.34,348.59,300c8.75,4.37,22.36,12.64,36.45,22.36,11.18-2.43,24.79,0,38.39,10.21a81.65,81.65,0,0,1,10.21,8.75c8.26,8.26,17,19.44,26.73,31.59,1,1,1.46,1.94,2.43,2.92a7.53,7.53,0,0,1-1,10.21,7.81,7.81,0,0,1-11.18-1c-1-1-1.46-1.94-2.43-2.92-12.64-15.55-24.3-30.62-34-37.42-18-13.12-32.08-8.26-39.37.49-5.83,7.29-7.78,18,.49,25.27,11.66,10.69,22.84,24.3,34,37.91,12.64,15.55,26.24,31.59,37.91,40.83,6.8,4.86,20.41,11.18,35,17.5l10.21,4.37,27.22,27.22c2.43,2.43,5.83,2.43,7.78,0l60.75-60.75C591.6,434.6,591.6,431.2,589.65,428.77Z"/></svg>